<svg width="1200" height="360" viewBox="0 0 1200 360" fill="none" xmlns="http://www.w3.org/2000/svg">
  <defs>
    <filter id="soft" x="0" y="0" width="1200" height="360" filterUnits="userSpaceOnUse" color-interpolation-filters="sRGB">
      <feDropShadow dx="0" dy="10" stdDeviation="10" flood-color="#1B1B1B" flood-opacity="0.10"/>
    </filter>
  </defs>

  <!-- Doodle strip background -->
  <g filter="url(#soft)">
    <rect x="30" y="40" width="1140" height="280" rx="56" fill="#FFFFFF" fill-opacity="0.70"/>
  </g>

  <!-- Dates -->
  <g transform="translate(110,120)">
    <path d="M60 24C82 10 110 18 122 42C134 65 124 95 100 108C76 120 48 112 36 88C24 65 34 38 60 24Z" fill="#7A4A2A" fill-opacity="0.80"/>
    <path d="M95 22C100 11 112 4 126 4" stroke="#2E7D32" stroke-width="10" stroke-linecap="round"/>
    <path d="M40 72C54 54 76 54 94 72" stroke="#FFF7E6" stroke-width="10" stroke-linecap="round" opacity="0.6"/>
  </g>

  <!-- Almond -->
  <g transform="translate(300,115)">
    <path d="M80 24C110 48 124 94 110 136C96 178 54 196 26 172C-2 148 -4 100 12 62C28 24 56 8 80 24Z" fill="#FFF7E6" fill-opacity="0.95" stroke="#7A4A2A" stroke-opacity="0.35" stroke-width="8"/>
    <path d="M55 42C46 70 46 106 56 142" stroke="#7A4A2A" stroke-opacity="0.35" stroke-width="8" stroke-linecap="round"/>
  </g>

  <!-- Strawberry -->
  <g transform="translate(505,112)">
    <path d="M80 44C94 28 120 28 134 44C154 66 150 100 126 130C104 158 68 158 46 130C22 100 18 66 38 44C52 28 66 28 80 44Z" fill="#D81B60" fill-opacity="0.85"/>
    <path d="M86 32C90 16 104 6 120 6" stroke="#2E7D32" stroke-width="10" stroke-linecap="round"/>
    <path d="M60 86L70 96" stroke="#FFF7E6" stroke-width="10" stroke-linecap="round" opacity="0.6"/>
    <path d="M84 100L94 110" stroke="#FFF7E6" stroke-width="10" stroke-linecap="round" opacity="0.5"/>
    <path d="M102 82L112 92" stroke="#FFF7E6" stroke-width="10" stroke-linecap="round" opacity="0.5"/>
  </g>

  <!-- Turmeric root -->
  <g transform="translate(700,132)">
    <path d="M46 56C58 26 88 10 114 22C144 36 152 74 132 100C114 124 78 126 56 106C36 88 34 80 46 56Z" fill="#F6C343" fill-opacity="0.9" stroke="#7A4A2A" stroke-opacity="0.25" stroke-width="8"/>
    <path d="M120 28C122 14 134 6 150 6" stroke="#2E7D32" stroke-width="10" stroke-linecap="round"/>
    <path d="M74 56C96 66 102 88 92 104" stroke="#7A4A2A" stroke-opacity="0.35" stroke-width="8" stroke-linecap="round"/>
  </g>

  <!-- Cardamom pod -->
  <g transform="translate(905,128)">
    <path d="M62 26C86 10 118 26 128 56C138 88 122 120 94 130C66 140 34 124 24 92C14 62 30 42 62 26Z" fill="#2E7D32" fill-opacity="0.30" stroke="#2E7D32" stroke-opacity="0.7" stroke-width="8"/>
    <path d="M64 44C58 70 58 96 68 114" stroke="#2E7D32" stroke-opacity="0.7" stroke-width="8" stroke-linecap="round"/>
    <circle cx="82" cy="74" r="8" fill="#7A4A2A" fill-opacity="0.65"/>
  </g>
</svg>


