<svg width="960" height="640" viewBox="0 0 960 640" fill="none" xmlns="http://www.w3.org/2000/svg">
  <defs>
    <linearGradient id="g2" x1="120" y1="80" x2="860" y2="560" gradientUnits="userSpaceOnUse">
      <stop stop-color="#2E7D32" stop-opacity="0.95"/>
      <stop offset="0.45" stop-color="#F6C343" stop-opacity="0.95"/>
      <stop offset="1" stop-color="#7A4A2A" stop-opacity="0.92"/>
    </linearGradient>
    <filter id="s2" x="0" y="0" width="960" height="640" filterUnits="userSpaceOnUse" color-interpolation-filters="sRGB">
      <feDropShadow dx="0" dy="18" stdDeviation="18" flood-color="#1B1B1B" flood-opacity="0.16"/>
    </filter>
  </defs>

  <g filter="url(#s2)">
    <rect x="90" y="90" width="780" height="460" rx="64" fill="url(#g2)"/>
    <rect x="120" y="120" width="720" height="400" rx="52" fill="#0B0B0C" fill-opacity="0.08"/>
    <rect x="150" y="150" width="660" height="340" rx="44" fill="#FFFFFF" fill-opacity="0.78"/>
  </g>

  <text x="185" y="220" fill="#1B1B1B" font-family="ui-sans-serif, system-ui" font-size="44" font-weight="850" letter-spacing="-1">
    Jogi Jam Bars
  </text>
  <text x="185" y="272" fill="#1B1B1B" opacity="0.75" font-family="ui-sans-serif, system-ui" font-size="26" font-weight="750">
    Family Line • Golden Chai Bliss
  </text>

  <g transform="translate(180,325)">
    <rect width="290" height="56" rx="28" fill="#7A4A2A" fill-opacity="0.90"/>
    <text x="22" y="38" fill="white" font-family="ui-sans-serif, system-ui" font-size="22" font-weight="850">Cozy spices</text>
  </g>
  <g transform="translate(495,325)">
    <rect width="255" height="56" rx="28" fill="#2E7D32" fill-opacity="0.90"/>
    <text x="22" y="38" fill="white" font-family="ui-sans-serif, system-ui" font-size="22" font-weight="850">Whole-food energy</text>
  </g>

  <!-- pattern -->
  <g opacity="0.26" stroke="#1B1B1B" stroke-width="5">
    <path d="M210 460C260 420 320 420 370 460" stroke-linecap="round"/>
    <path d="M380 460C430 420 490 420 540 460" stroke-linecap="round"/>
    <path d="M550 460C600 420 660 420 710 460" stroke-linecap="round"/>
  </g>

  <!-- spice doodles -->
  <g opacity="0.85">
    <circle cx="770" cy="210" r="12" fill="#F6C343"/>
    <circle cx="805" cy="245" r="10" fill="#2E7D32"/>
    <circle cx="735" cy="245" r="10" fill="#7A4A2A"/>
  </g>
</svg>


