<svg width="960" height="640" viewBox="0 0 960 640" fill="none" xmlns="http://www.w3.org/2000/svg">
  <defs>
    <linearGradient id="g" x1="120" y1="80" x2="860" y2="560" gradientUnits="userSpaceOnUse">
      <stop stop-color="#F6C343"/>
      <stop offset="0.55" stop-color="#38BDF8"/>
      <stop offset="1" stop-color="#D81B60"/>
    </linearGradient>
    <filter id="s" x="0" y="0" width="960" height="640" filterUnits="userSpaceOnUse" color-interpolation-filters="sRGB">
      <feDropShadow dx="0" dy="18" stdDeviation="18" flood-color="#1B1B1B" flood-opacity="0.16"/>
    </filter>
  </defs>

  <g filter="url(#s)">
    <rect x="90" y="90" width="780" height="460" rx="64" fill="url(#g)"/>
    <rect x="120" y="120" width="720" height="400" rx="52" fill="#FFFFFF" fill-opacity="0.74"/>
  </g>

  <text x="160" y="200" fill="#1B1B1B" font-family="ui-sans-serif, system-ui" font-size="44" font-weight="800" letter-spacing="-1">
    Jogi Jam Bars
  </text>
  <text x="160" y="252" fill="#1B1B1B" opacity="0.75" font-family="ui-sans-serif, system-ui" font-size="26" font-weight="700">
    Kids Line • Strawberry Jammin’
  </text>

  <g transform="translate(150,305)">
    <rect width="300" height="56" rx="28" fill="#D81B60" fill-opacity="0.95"/>
    <text x="22" y="38" fill="white" font-family="ui-sans-serif, system-ui" font-size="22" font-weight="800">Date-sweetened</text>
  </g>
  <g transform="translate(470,305)">
    <rect width="250" height="56" rx="28" fill="#2E7D32" fill-opacity="0.90"/>
    <text x="22" y="38" fill="white" font-family="ui-sans-serif, system-ui" font-size="22" font-weight="800">Organic vibes</text>
  </g>

  <!-- mini mascot sticker -->
  <g transform="translate(720,165)">
    <circle cx="70" cy="70" r="70" fill="#F6C343" fill-opacity="0.85"/>
    <path d="M66 46C54 36 36 40 28 54C20 68 26 86 42 92C58 98 76 90 82 76" stroke="#1B1B1B" stroke-width="8" stroke-linecap="round"/>
    <circle cx="46" cy="62" r="6" fill="#1B1B1B"/>
    <circle cx="74" cy="62" r="6" fill="#1B1B1B"/>
    <path d="M46 84C56 96 70 98 82 88" stroke="#D81B60" stroke-width="8" stroke-linecap="round"/>
  </g>

  <!-- tiny ingredient doodles -->
  <g opacity="0.85">
    <circle cx="770" cy="455" r="14" fill="#D81B60"/>
    <circle cx="805" cy="425" r="12" fill="#2E7D32"/>
    <circle cx="740" cy="420" r="10" fill="#7A4A2A"/>
  </g>
</svg>



